<svg width="1920" height="960" viewBox="0 0 1920 960" fill="none" xmlns="http://www.w3.org/2000/svg">
  <defs>
    <linearGradient id="bg" x1="0" y1="0" x2="0" y2="960" gradientUnits="userSpaceOnUse">
      <stop stop-color="#111827"/>
      <stop offset="1" stop-color="#1f2937"/>
    </linearGradient>
  </defs>
  <rect width="1920" height="960" fill="url(#bg)"/>
  <g opacity="0.9" stroke="#34d399" stroke-opacity="0.55" stroke-width="2">
    <line x1="420" y1="220" x2="730" y2="360"/>
    <line x1="730" y1="360" x2="1030" y2="280"/>
    <line x1="730" y1="360" x2="940" y2="520"/>
    <line x1="940" y1="520" x2="1260" y2="450"/>
    <line x1="1030" y1="280" x2="1370" y2="320"/>
    <line x1="1260" y1="450" x2="1490" y2="620"/>
    <line x1="940" y1="520" x2="720" y2="640"/>
    <line x1="720" y1="640" x2="460" y2="560"/>
  </g>
  <g>
    <circle cx="420" cy="220" r="30" fill="#10b981"/>
    <circle cx="730" cy="360" r="38" fill="#34d399"/>
    <circle cx="1030" cy="280" r="32" fill="#6ee7b7"/>
    <circle cx="940" cy="520" r="44" fill="#10b981"/>
    <circle cx="1260" cy="450" r="34" fill="#34d399"/>
    <circle cx="1370" cy="320" r="28" fill="#6ee7b7"/>
    <circle cx="1490" cy="620" r="30" fill="#10b981"/>
    <circle cx="720" cy="640" r="26" fill="#6ee7b7"/>
    <circle cx="460" cy="560" r="24" fill="#34d399"/>
  </g>
</svg>
